<svg width="176" height="41" viewBox="0 0 176 41" fill="none" xmlns="http://www.w3.org/2000/svg">
<path d="M31.6599 17.365H22.8316L29.074 11.1227L25.3483 7.39704L19.106 13.6394V4.81116H13.8354V13.6394L7.59305 7.39704L3.86741 11.1227L10.1098 17.365H1.28152V22.6356H10.1098L3.86741 28.878L7.59305 32.6036L13.8354 26.3613V35.1895H19.106V26.3613L25.3483 32.6036L29.074 28.878L22.8316 22.6356H31.6599V17.365Z" fill="#EF6640"/>
<path d="M44.8242 32V8.94117H59.1371V12.3671H48.2501V17.9341H57.0124V21.36H48.2501V28.5741H59.1371V32H44.8242ZM67.0569 32.3129C66.1895 32.258 65.344 32.0824 64.5205 31.7859C63.6969 31.4894 62.9722 31.0886 62.3463 30.5835C61.7314 30.0675 61.2703 29.4635 60.9628 28.7718L63.8781 27.52C64.0209 27.8165 64.2679 28.1075 64.6193 28.3929C64.9816 28.6784 65.4044 28.9145 65.8875 29.1012C66.3707 29.2769 66.8758 29.3647 67.4028 29.3647C67.9189 29.3647 68.3965 29.2933 68.8358 29.1506C69.2859 28.9969 69.6538 28.7663 69.9393 28.4588C70.2248 28.1514 70.3675 27.7835 70.3675 27.3553C70.3675 26.8722 70.2028 26.4988 69.8734 26.2353C69.555 25.9608 69.1542 25.7522 68.671 25.6094C68.1879 25.4667 67.7048 25.3294 67.2216 25.1976C66.1456 24.9561 65.1573 24.6267 64.2569 24.2094C63.3675 23.7812 62.6593 23.2376 62.1322 22.5788C61.6052 21.909 61.3416 21.091 61.3416 20.1247C61.3416 19.0706 61.6271 18.1592 62.1981 17.3906C62.7691 16.611 63.5158 16.0125 64.4381 15.5953C65.3714 15.178 66.3652 14.9694 67.4193 14.9694C68.7369 14.9694 69.9448 15.2494 71.0428 15.8094C72.1409 16.3694 72.9809 17.138 73.5628 18.1153L70.8452 19.7294C70.6805 19.4 70.4334 19.1035 70.104 18.84C69.7746 18.5765 69.4012 18.3678 68.984 18.2141C68.5667 18.0494 68.133 17.9561 67.6828 17.9341C67.1228 17.9122 66.6012 17.978 66.1181 18.1318C65.6459 18.2745 65.2671 18.5051 64.9816 18.8235C64.6961 19.142 64.5534 19.5482 64.5534 20.0424C64.5534 20.5255 64.7236 20.8878 65.064 21.1294C65.4044 21.36 65.8326 21.5467 66.3487 21.6894C66.8758 21.8322 67.4138 21.9914 67.9628 22.1671C68.9401 22.4745 69.8569 22.8533 70.7134 23.3035C71.5699 23.7427 72.2616 24.2863 72.7887 24.9341C73.3158 25.582 73.5683 26.3725 73.5463 27.3059C73.5463 28.338 73.2334 29.2439 72.6075 30.0235C71.9926 30.8031 71.191 31.3961 70.2028 31.8024C69.2146 32.2086 68.1659 32.3788 67.0569 32.3129ZM86.238 27.3224L89.3015 28.9859C88.5548 30.029 87.605 30.8635 86.4521 31.4894C85.3101 32.1153 84.0693 32.4282 82.7297 32.4282C81.2144 32.4282 79.8309 32.0384 78.5791 31.2588C77.3384 30.4792 76.3446 29.4361 75.598 28.1294C74.8623 26.8118 74.4944 25.3569 74.4944 23.7647C74.4944 22.5569 74.7085 21.4314 75.1368 20.3882C75.565 19.3341 76.1525 18.4118 76.8991 17.6212C77.6568 16.8196 78.5352 16.1937 79.5344 15.7435C80.5336 15.2933 81.5987 15.0682 82.7297 15.0682C84.0693 15.0682 85.3101 15.3812 86.4521 16.0071C87.605 16.6329 88.5548 17.4729 89.3015 18.5271L86.238 20.1906C85.7768 19.6416 85.2387 19.2243 84.6238 18.9388C84.0089 18.6424 83.3776 18.4941 82.7297 18.4941C81.8293 18.4941 81.0113 18.7412 80.2756 19.2353C79.5509 19.7184 78.9744 20.3608 78.5462 21.1624C78.1289 21.9529 77.9203 22.8204 77.9203 23.7647C77.9203 24.698 78.1344 25.5655 78.5627 26.3671C78.9909 27.1576 79.5674 27.7945 80.2921 28.2776C81.0278 28.7608 81.8403 29.0024 82.7297 29.0024C83.4105 29.0024 84.0584 28.8486 84.6733 28.5412C85.2882 28.2337 85.8097 27.8275 86.238 27.3224ZM104.012 15.5294H107.438V32H103.996L103.864 29.6118C103.381 30.4573 102.727 31.138 101.904 31.6541C101.08 32.1702 100.109 32.4282 98.9885 32.4282C97.7807 32.4282 96.6442 32.2031 95.5791 31.7529C94.514 31.2918 93.5752 30.6549 92.7626 29.8424C91.9611 29.0298 91.3352 28.0965 90.885 27.0424C90.4348 25.9773 90.2097 24.8353 90.2097 23.6165C90.2097 22.4416 90.4293 21.338 90.8685 20.3059C91.3077 19.2627 91.9171 18.3514 92.6967 17.5718C93.4764 16.7922 94.3767 16.1827 95.3979 15.7435C96.4301 15.2933 97.5336 15.0682 98.7085 15.0682C99.9054 15.0682 100.959 15.3427 101.871 15.8918C102.793 16.4298 103.556 17.1216 104.16 17.9671L104.012 15.5294ZM98.9062 29.1176C99.8724 29.1176 100.718 28.8816 101.443 28.4094C102.167 27.9263 102.727 27.2784 103.123 26.4659C103.529 25.6533 103.732 24.7529 103.732 23.7647C103.732 22.7655 103.529 21.8596 103.123 21.0471C102.716 20.2345 102.151 19.5922 101.426 19.12C100.712 18.6369 99.8724 18.3953 98.9062 18.3953C97.9509 18.3953 97.0779 18.6369 96.2873 19.12C95.4967 19.6031 94.8709 20.251 94.4097 21.0635C93.9485 21.8761 93.7179 22.7765 93.7179 23.7647C93.7179 24.7639 93.954 25.6698 94.4262 26.4824C94.9093 27.2839 95.5407 27.9263 96.3203 28.4094C97.1109 28.8816 97.9728 29.1176 98.9062 29.1176ZM113.492 40.2353H110.066V15.5294H113.492V17.9506C114.041 17.1051 114.743 16.4188 115.6 15.8918C116.456 15.3647 117.467 15.1012 118.63 15.1012C119.827 15.1012 120.947 15.3263 121.99 15.7765C123.045 16.2267 123.967 16.8525 124.758 17.6541C125.548 18.4447 126.169 19.3616 126.619 20.4047C127.069 21.4478 127.294 22.5678 127.294 23.7647C127.294 24.9616 127.069 26.0871 126.619 27.1412C126.169 28.1953 125.548 29.1231 124.758 29.9247C123.967 30.7153 123.045 31.3357 121.99 31.7859C120.947 32.2361 119.827 32.4612 118.63 32.4612C117.467 32.4612 116.456 32.1976 115.6 31.6706C114.743 31.1325 114.041 30.4463 113.492 29.6118V40.2353ZM118.598 18.4118C117.642 18.4118 116.802 18.6533 116.078 19.1365C115.353 19.6196 114.787 20.2674 114.381 21.08C113.975 21.8816 113.772 22.7765 113.772 23.7647C113.772 24.7529 113.975 25.6533 114.381 26.4659C114.787 27.2784 115.353 27.9263 116.078 28.4094C116.802 28.8925 117.642 29.1341 118.598 29.1341C119.542 29.1341 120.409 28.898 121.2 28.4259C121.99 27.9427 122.622 27.2949 123.094 26.4824C123.566 25.6698 123.802 24.7639 123.802 23.7647C123.802 22.7875 123.566 21.8925 123.094 21.08C122.633 20.2674 122.007 19.6196 121.216 19.1365C120.426 18.6533 119.553 18.4118 118.598 18.4118ZM136.535 32.4282C135.019 32.4282 133.636 32.0384 132.384 31.2588C131.143 30.4792 130.149 29.4361 129.403 28.1294C128.667 26.8118 128.299 25.3569 128.299 23.7647C128.299 22.5569 128.513 21.4314 128.942 20.3882C129.37 19.3341 129.957 18.4118 130.704 17.6212C131.462 16.8196 132.34 16.1937 133.339 15.7435C134.338 15.2933 135.404 15.0682 136.535 15.0682C138.05 15.0682 139.428 15.458 140.669 16.2376C141.92 17.0173 142.914 18.0659 143.65 19.3835C144.396 20.7012 144.77 22.1616 144.77 23.7647C144.77 24.9616 144.556 26.0816 144.127 27.1247C143.699 28.1678 143.106 29.0902 142.349 29.8918C141.602 30.6824 140.729 31.3027 139.73 31.7529C138.742 32.2031 137.676 32.4282 136.535 32.4282ZM136.535 29.0024C137.446 29.0024 138.264 28.7608 138.989 28.2776C139.713 27.7945 140.284 27.1576 140.702 26.3671C141.13 25.5655 141.344 24.698 141.344 23.7647C141.344 22.8094 141.124 21.931 140.685 21.1294C140.257 20.3278 139.68 19.691 138.956 19.2188C138.231 18.7357 137.424 18.4941 136.535 18.4941C135.634 18.4941 134.816 18.7357 134.08 19.2188C133.356 19.702 132.779 20.3443 132.351 21.1459C131.934 21.9475 131.725 22.8204 131.725 23.7647C131.725 24.742 131.945 25.6259 132.384 26.4165C132.823 27.2071 133.405 27.8384 134.13 28.3106C134.865 28.7718 135.667 29.0024 136.535 29.0024ZM146.772 32V15.5294H150.198V17.2753C150.769 16.5945 151.472 16.0565 152.306 15.6612C153.141 15.2659 154.041 15.0682 155.007 15.0682C155.622 15.0682 156.232 15.1506 156.836 15.3153L155.468 18.7741C155.04 18.6094 154.612 18.5271 154.184 18.5271C153.459 18.5271 152.795 18.7082 152.191 19.0706C151.587 19.422 151.104 19.8996 150.741 20.5035C150.379 21.1075 150.198 21.7773 150.198 22.5129V32H146.772ZM170.122 15.5294H173.548V32H170.106L169.974 29.6118C169.491 30.4573 168.837 31.138 168.014 31.6541C167.19 32.1702 166.219 32.4282 165.099 32.4282C163.891 32.4282 162.754 32.2031 161.689 31.7529C160.624 31.2918 159.685 30.6549 158.873 29.8424C158.071 29.0298 157.445 28.0965 156.995 27.0424C156.545 25.9773 156.32 24.8353 156.32 23.6165C156.32 22.4416 156.539 21.338 156.979 20.3059C157.418 19.2627 158.027 18.3514 158.807 17.5718C159.586 16.7922 160.487 16.1827 161.508 15.7435C162.54 15.2933 163.644 15.0682 164.819 15.0682C166.015 15.0682 167.07 15.3427 167.981 15.8918C168.903 16.4298 169.666 17.1216 170.27 17.9671L170.122 15.5294ZM165.016 29.1176C165.983 29.1176 166.828 28.8816 167.553 28.4094C168.277 27.9263 168.837 27.2784 169.233 26.4659C169.639 25.6533 169.842 24.7529 169.842 23.7647C169.842 22.7655 169.639 21.8596 169.233 21.0471C168.826 20.2345 168.261 19.5922 167.536 19.12C166.823 18.6369 165.983 18.3953 165.016 18.3953C164.061 18.3953 163.188 18.6369 162.397 19.12C161.607 19.6031 160.981 20.251 160.52 21.0635C160.059 21.8761 159.828 22.7765 159.828 23.7647C159.828 24.7639 160.064 25.6698 160.536 26.4824C161.019 27.2839 161.651 27.9263 162.43 28.4094C163.221 28.8816 164.083 29.1176 165.016 29.1176Z" fill="white"/>
</svg>
